<?xml version="1.0" encoding="UTF-8" standalone="no"?>
<svg
   xmlns:dc="http://purl.org/dc/elements/1.1/"
   xmlns:cc="http://creativecommons.org/ns#"
   xmlns:rdf="http://www.w3.org/1999/02/22-rdf-syntax-ns#"
   xmlns:svg="http://www.w3.org/2000/svg"
   xmlns="http://www.w3.org/2000/svg"
   xmlns:sodipodi="http://sodipodi.sourceforge.net/DTD/sodipodi-0.dtd"
   xmlns:inkscape="http://www.inkscape.org/namespaces/inkscape"
   width="50"
   height="77"
   viewBox="0 0 50 77"
   fill="none"
   version="1.1"
   id="svg66"
   sodipodi:docname="dino_ride.svg"
   inkscape:version="0.92.4 (unknown)">
  <metadata
     id="metadata72">
    <rdf:RDF>
      <cc:Work
         rdf:about="">
        <dc:format>image/svg+xml</dc:format>
        <dc:type
           rdf:resource="http://purl.org/dc/dcmitype/StillImage" />
        <dc:title></dc:title>
      </cc:Work>
    </rdf:RDF>
  </metadata>
  <defs
     id="defs70" />
  <sodipodi:namedview
     pagecolor="#ffffff"
     bordercolor="#666666"
     borderopacity="1"
     objecttolerance="10"
     gridtolerance="10"
     guidetolerance="10"
     inkscape:pageopacity="0"
     inkscape:pageshadow="2"
     inkscape:window-width="1920"
     inkscape:window-height="998"
     id="namedview68"
     showgrid="false"
     inkscape:zoom="3.0649351"
     inkscape:cx="25"
     inkscape:cy="38.5"
     inkscape:window-x="0"
     inkscape:window-y="26"
     inkscape:window-maximized="1"
     inkscape:current-layer="svg66" />
  <g
     id="g106"
     transform="matrix(-1,0,0,1,50.40259,0)">
    <path
       id="path2"
       d="m 15.46,76.8701 c 5.2356,0 9.48,-4.2445 9.48,-9.4802 0,-5.2357 -4.2444,-9.48 -9.48,-9.48 -5.2357,0 -9.48002,4.2443 -9.48002,9.48 0,5.2357 4.24432,9.4802 9.48002,9.4802 z"
       inkscape:connector-curvature="0"
       style="fill:#373051" />
    <path
       id="path4"
       d="m 1.27003,11.47 c 1.17,-0.8 2.71001,-0.0399 3.57001,0.8601 0.84,0.87 1.57,2.62 0.41,3.54 -2.16,1.73 -6.180007,-2.5401 -3.98001,-4.4001 z"
       inkscape:connector-curvature="0"
       style="fill:#ff5767" />
    <path
       id="path6"
       d="m 18.59,63.2701 0.28,-2.92 c -0.01,-0.08 -0.03,-0.16 -0.03,-0.24 0.11,-2.02 0.33,-4.02 0.65,-6.02 0.06,-0.95 0.45,-1.86 1.1,-2.55 0.6,-0.58 1.26,-0.4401 2,0.4099 0.81,1.06 1.45,2.25 1.9,3.52 0.48,1.19 0.77,2.44 0.85,3.72 v 0.6601 c 0.02,0.08 0.04,0.16 0.05,0.25 0,0.51 -0.03,2.41 -0.1,5.71 h -9.88 z"
       inkscape:connector-curvature="0"
       style="fill:#604680" />
    <path
       id="path8"
       d="M 19.04,65.8201 H 15.4 l 2.49,-1.98 z"
       inkscape:connector-curvature="0"
       style="fill:#0d1013" />
    <path
       id="path10"
       d="m 10.92,48.98 -0.8,-0.95 c 0.14,-0.69 0.42,-1.3499 0.82,-1.9399 0.41,-0.58 0.93,-1.0802 1.54,-1.4502 1.4,-1.04 3.02,-1.7699 4.72,-2.1399 1.94,-0.47 3.05,-1.3499 3.33,-2.6299 0.13,-0.62 0.07,-1.26 -0.19,-1.83 -0.3,-0.72 -0.83,-1.31 -1.51,-1.69 -0.68,-0.38 -1.47,-0.5201 -2.26,-0.4001 -0.89,0.05 -1.76,0.2601 -2.58,0.6201 -1.49,0.74 -2.81,1.7898 -3.88,3.0698 C 9.04999,40.9199 8.27001,42.41 7.84001,44.01 7.42001,45.39 7.31,46.85 7.52,48.27 6.78,48.81 6.28,49.6 6.12,50.49 6.03,50.87 6.02001,51.2499 6.09001,51.6299 l 1.76001,-0.98 C 7.84002,51.0299 7.92,51.41 8.08,51.75 c 0.16,0.34 0.39,0.6399 0.69,0.8799 0.38,-0.37 0.67001,-0.8298 0.82001,-1.3398 L 9.73002,50.6499 11.59,51.22 c 0,-0.81 -0.24,-1.58 -0.67,-2.24 z"
       inkscape:connector-curvature="0"
       style="fill:#6f568e" />
    <path
       id="path12"
       d="m 38.24,52.3301 3.02,-1.7901 1.17,3.5501 2.68,-1.03 0.75,3.0698 -6.01,-2.5899 -6.58,-2.1101 3.4,-2.8698 z"
       inkscape:connector-curvature="0"
       style="fill:#0d1013" />
    <path
       id="path14"
       d="m 34.31,19.0901 -4.03,2.7998 3.49,3.4302 -3.33,2.6899 2.93,2.3101 -3.09,2.6899 -0.53,-17.79 z"
       inkscape:connector-curvature="0"
       style="fill:#0d1013" />
    <path
       id="path16"
       d="m 19.1901,13.6399 c 3.02,-1.24 6.15,-2.15 9.36,-2.71 0.22,0.21 0.41,0.45 0.57,0.71 0.42,0.77 0.65,1.64 0.66,2.53 0.08,1.55 0.22,6.54 0.41,14.96 0.19,7.49 0.45,13.5301 0.77,18.1301 0.13,1.96 0.87,3.2401 2.2,3.8401 1.86,0.78 3.77,1.44 5.71,1.98 l 3.02,1.1399 c 2.01,0.74 3.96,1.6399 5.83,2.6999 1.26,0.76 1.94,1.3501 2.04,1.7901 0.04,0.23 -0.0301,0.3699 -0.2101,0.4199 -0.9399,-0.22 -1.8899,-0.3499 -2.8499,-0.3999 -3.02,-0.12 -6.04,0.06 -9.02,0.55 -5.02,0.73 -8.79,0.89 -11.31,0.49 -3.5,-0.24 -6.06,-1.4 -7.67,-3.47 -1.17,-1.55 -2.25,-4.3699 -3.25,-8.4599 -3.43,-14.59 -5.18,-22.8001 -5.26,-24.6301 -0.17,-3.79 2.83,-6.9701 9,-9.5701 z"
       inkscape:connector-curvature="0"
       style="fill:#ff5767" />
    <path
       id="path18"
       d="m 10.4101,24.08 c 1.19,-2.08 3.66,-3.6402 7.39,-4.6802 2.34,-0.68 4.25,-0.4899 5.76,0.5701 1.5,1.06 1.39,1.8599 -0.32,2.4199 -0.02,3.9 0.06,8.0301 0.24,12.3701 0.34,8.78 0.95,14.3901 1.82,16.8401 0.22,0.8 0.6,1.55 1.11,2.2 0.52,0.65 1.16,1.18 1.89,1.56 1.21,0.53 3.36,0.7499 6.45,0.6699 1.85,0.05 3.69,0.21 5.52,0.47 2.52,0.29 4.97,1.06 7.22,2.27 l -0.83,-0.07 c -3.02,-0.12 -6.04,0.06 -9.02,0.55 -5.02,0.73 -8.79,0.89 -11.31,0.49 -3.5,-0.24 -6.06,-1.4 -7.67,-3.47 -1.17,-1.55 -2.25,-4.3699 -3.25,-8.4599 -2.93,-12.61 -4.62,-20.4701 -5.08,-23.5901 z"
       inkscape:connector-curvature="0"
       style="fill:#ffc500" />
    <path
       id="path20"
       d="m 14.65,16.5801 13.6,5.3598 -2.5,7.73 c -2.24,5.2 -4.8,7.9102 -7.68,8.1402 -2.88,0.22 -4.33,-3.2402 -4.34,-10.4002 z"
       inkscape:connector-curvature="0"
       style="fill:#ff5666" />
    <path
       id="path22"
       d="M 15.1601,17.6599 26.56,22.5901 c -0.43,2.32 -1.08,4.58 -1.95,6.77 -1.81,4.53 -3.92,6.8798 -6.34,7.0398 -2.42,0.17 -3.6599,-2.91 -3.7299,-9.22 -0.02,-3.18 0.18,-6.36 0.62,-9.52 z"
       inkscape:connector-curvature="0"
       style="fill:#4a0006" />
    <path
       id="path24"
       d="m 20.68,32.14 c 0.76,0.13 1.49,0.39 2.16,0.76 -1.4,2.19 -2.93,3.3402 -4.59,3.4502 -1.5,0.11 -2.54,-1.0302 -3.13,-3.4102 1.74,-0.83 3.67,-1.11 5.56,-0.8 z"
       inkscape:connector-curvature="0"
       style="fill:#8e010d" />
    <path
       id="path26"
       d="m 24.7501,25.1899 -0.58,3.5801 -3.15,-1.06 -1.08,2.6999 -2.99,-1.4099 -1.5901,2.5701 -2.7199,-2 -0.21,-0.6802 11.9299,-4.0798 z"
       inkscape:connector-curvature="0"
       style="fill:#ffffff" />
    <path
       id="path28"
       d="m 2.94006,16.4098 c 0.25,-1.3 0.84999,-2.4899 1.73999,-3.4399 0.89,-0.95 2.03,-1.6299 3.29,-1.9399 2.29005,-0.73 5.80005,-0.98 10.53005,-0.74 l 10.45,0.4599 -0.39,4.3799 c -0.27,2.6 -0.9401,5.13 -1.9801,7.51 -1.26,2.44 -3.6799,4.2301 -7.2899,5.3601 -2.6,0.71 -5.26,1.1601 -7.94,1.3401 -1.82004,0.1 -3.65005,0.1 -5.48005,-0.01 -0.9,-0.02 -1.8,-0.1301 -2.69,-0.3201 -0.2,-1.21 -0.36998,-2.63 -0.50998,-4.28 -0.27,-2.78 -0.18001,-5.5701 0.26999,-8.3201 z"
       inkscape:connector-curvature="0"
       style="fill:#ff5767" />
    <path
       id="path30"
       d="M 4.57002,9.12986 C 6.92002,6.55986 10.36,11.9001 8.33,14.1201 6.01,16.6601 2.54002,11.3499 4.57002,9.12986 Z"
       inkscape:connector-curvature="0"
       style="fill:#ff5767" />
    <path
       id="path32"
       d="M 5.21,10.3898 C 5.91,9.11983 7.81002,11.53 6.92002,12.51 5.96002,13.54 4.77,11.1898 5.21,10.3898 Z"
       inkscape:connector-curvature="0"
       style="fill:#0d1013" />
    <path
       id="path34"
       d="m 21.68,26.6899 c 1.53,-0.68 2.88,-1.7398 3.9,-3.0898 0.22,-0.31 0.42,-0.6302 0.6,-0.9702 0.1,-0.18 0.17,-0.3799 0.23,-0.5799 0.06,-0.19 0.21,-0.2401 0.43,-0.1601 0.22,0.09 0.28,0.2301 0.17,0.4301 l -0.9,1.67 c -1.12,1.42 -2.54,2.55 -4.17,3.31 -1.66,0.81 -3.42,1.4301 -5.22,1.8201 -1.73,0.37 -3.55,0.6798 -5.32,0.8198 l -0.13,-0.6098 c 3.57,-0.19 7.16,-1.1502 10.41,-2.6402 z"
       inkscape:connector-curvature="0"
       style="fill:#ffffff" />
    <path
       id="path36"
       d="M 27.14,0.0200822 C 27.72,8.21948e-5 28.3,0.150004 28.82,0.440004 c 0.51,0.29 0.95,0.709966 1.25,1.219966 0.32,0.52 0.39,0.94001 0.21,1.26001 -0.14,0.17 -0.33,0.29008 -0.54,0.33008 -0.1,0.03 -0.21,0.04003 -0.32,0.03003 -0.11,-0.01 -0.21,-0.0501 -0.31,-0.1001 -0.67,-0.52 -1.42,-0.90992 -2.22,-1.16992 -0.75,-0.14 -1.12,-0.49005 -1.11,-1.050046 0.01,-0.56 0.46,-0.8799418 1.36,-0.9399418 z"
       inkscape:connector-curvature="0"
       style="fill:#0d1013" />
    <path
       id="path38"
       d="m 14.28,0.86016 c 0.45,-0.37 1.01,-0.590127 1.59,-0.630127 0.91,-0.03 1.42,0.240058 1.51,0.810057 0.03,0.13 0.02,0.2699 -0.02,0.3999 -0.04,0.13 -0.1199,0.24008 -0.2199,0.33008 -0.21,0.18 -0.4701,0.30987 -0.7401,0.36987 -0.72,0.42 -1.42,0.88014 -2.09,1.39014 -0.2,0.1 -0.4199,0.13986 -0.6399,0.10986 -0.11,0 -0.2201,-0.02983 -0.3201,-0.07983 -0.1,-0.05 -0.19,-0.11995 -0.26,-0.19995 -0.31,-0.31 -0.3,-0.73001 0.02,-1.26001 0.3,-0.51 0.7,-0.92999 1.17,-1.23999 z"
       inkscape:connector-curvature="0"
       style="fill:#0d1013" />
    <path
       id="path40"
       d="m 39.08,45.2501 0.41,-1.22 C 39.13,43.4101 38.64,42.87 38.06,42.45 37.48,42.03 36.82,41.7301 36.11,41.5701 34.43,41.0601 32.67,40.91 30.94,41.14 c -2,0.24 -3.36,-0.1999 -4.06,-1.3199 -0.34,-0.54 -0.49,-1.17 -0.45,-1.79 0.03,-0.78 0.32,-1.5301 0.83,-2.1201 0.51,-0.59 1.21,-0.9899 1.98,-1.1399 0.86,-0.27 1.77,-0.3801 2.68,-0.3201 1.66,0.2 3.26,0.7401 4.69,1.5901 1.44,0.86 2.68,1.9999 3.63,3.3599 0.87,1.16 1.47,2.5001 1.77,3.9101 0.44,0.13 0.85,0.3499 1.21,0.6399 0.36,0.29 0.66,0.6501 0.88,1.0501 0.22,0.33 0.36,0.69 0.42,1.08 l -2,-0.33 c 0.14,0.36 0.19,0.7401 0.16,1.1201 -0.03,0.38 -0.15,0.7398 -0.34,1.0698 -0.49,-0.22 -0.92,-0.56 -1.23,-0.99 l -0.35,-0.56 -1.58,1.2102 c -0.24,-0.77 -0.28,-1.5801 -0.1,-2.3501 z"
       inkscape:connector-curvature="0"
       style="fill:#6f568e" />
    <path
       id="path42"
       d="m 25.2,59.9701 c 0.06,-1.02 0.32,-2.91 0.78,-5.73 0.09,-0.94 0.5,-1.83 1.16,-2.5 0.61,-0.56 1.28,-0.41 2,0.46 0.77,1.07 1.37,2.26 1.78,3.52 0.45,1.2 0.71,2.46 0.76,3.74 v 0.53 c 0,0.51 0,2.5601 -0.08,5.8501 h -9.88 l 3.21,-2.52 z"
       inkscape:connector-curvature="0"
       style="fill:#6f568e" />
    <path
       id="path44"
       d="m 25.3801,65.8401 h -3.68 l 2.54,-1.98 z"
       inkscape:connector-curvature="0"
       style="fill:#0d1013" />
    <path
       id="path46"
       d="m 2.07,12.5802 c 0.71,-0.74 2.49,0.8999 1.78,1.6599 -0.74,0.78 -2.6,-0.9199 -1.78,-1.6599 z"
       inkscape:connector-curvature="0"
       style="fill:#0d1013" />
    <path
       id="path48"
       d="m 21.8701,8.00003 c 0.82,-1.8 2.99,-2.59996 4.77,-1.70996 1.62,0.81 2.36,2.76997 1.73,4.46993 -0.66,1.78 -2.67,2.7699 -4.47,2.1299 -1.94,-0.71 -2.87,-3.02987 -2.03,-4.88987 z"
       inkscape:connector-curvature="0"
       style="fill:#ffffff" />
    <path
       id="path50"
       d="m 14.67,7.26004 c 0.82,-1.8 2.99,-2.59996 4.77,-1.70996 1.62,0.81 2.36,2.76997 1.73,4.47002 -0.66,1.78 -2.67,2.7698 -4.47,2.1298 -1.95,-0.71 -2.88,-3.02986 -2.03,-4.88986 z"
       inkscape:connector-curvature="0"
       style="fill:#ffffff" />
    <path
       id="path52"
       d="m 16.17,10.6699 c 0.8173,0 1.4799,-0.6626 1.4799,-1.47996 0,-0.81738 -0.6626,-1.47998 -1.4799,-1.47998 -0.8174,0 -1.4801,0.6626 -1.4801,1.47998 0,0.81736 0.6627,1.47996 1.4801,1.47996 z"
       inkscape:connector-curvature="0"
       style="fill:#0d1013" />
    <path
       id="path54"
       d="m 23.37,11.3799 c 0.8174,0 1.48,-0.6626 1.48,-1.48 0,-0.81738 -0.6626,-1.47998 -1.48,-1.47998 -0.8174,0 -1.48,0.6626 -1.48,1.47998 0,0.8174 0.6626,1.48 1.48,1.48 z"
       inkscape:connector-curvature="0"
       style="fill:#0d1013" />
    <path
       id="path56"
       d="m 14.37,12.0801 c 1.79,1.96 4.91,2.08 6.83,0.26 0.12,0.17 0.24,0.33 0.38,0.48 1.78,1.95 4.9,2.1 6.82,0.27 1.91,-1.82 2,-4.95011 0.24,-6.90011 C 26.87,4.22999 23.76,4.05994 21.82,5.88994 21.8,5.90994 21.78,5.93 21.76,5.95 21.6,5.72 21.42,5.49008 21.22,5.29008 c -1.78,-1.83 -4.75,-1.89013 -6.61,-0.14013 -1.94,1.82 -2.03,4.98015 -0.24,6.93015 z m 7.88,-3.90012 c 0.72,-1.59 2.64,-2.30001 4.2,-1.51001 1.43,0.72 2.08,2.44018 1.53,3.94023 -0.58,1.57 -2.35,2.4498 -3.95,1.8798 -1.7,-0.62 -2.52,-2.67002 -1.78,-4.31002 z M 15.07,7.41997 c 0.71,-1.51 2.56,-2.26003 4.08,-1.53003 1.54,0.74 2.27,2.63018 1.56,4.19016 -0.67,1.49 -2.45,2.2799 -3.98,1.6199 -1.6,-0.69 -2.41,-2.70003 -1.66,-4.28003 z"
       inkscape:connector-curvature="0"
       style="fill:#6f568e" />
    <path
       id="path58"
       d="M 36.95,70.2 H 17.86 c -2.41,0 -4.36,-1.9499 -4.36,-4.3599 h 23.45 z"
       inkscape:connector-curvature="0"
       style="fill:#ea7500" />
    <path
       id="path60"
       d="m 36.6,76.8701 c 5.2357,0 9.48,-4.2445 9.48,-9.4802 0,-5.2357 -4.2443,-9.48 -9.48,-9.48 -5.2357,0 -9.48,4.2443 -9.48,9.48 0,5.2357 4.2443,9.4802 9.48,9.4802 z"
       inkscape:connector-curvature="0"
       style="fill:#373051" />
    <path
       id="path62"
       d="m 36.6,72.74 c 2.9547,0 5.35,-2.3954 5.35,-5.3501 0,-2.9547 -2.3953,-5.3499 -5.35,-5.3499 -2.9547,0 -5.35,2.3952 -5.35,5.3499 0,2.9547 2.3953,5.3501 5.35,5.3501 z"
       inkscape:connector-curvature="0"
       style="fill:#edd1be" />
    <path
       id="path64"
       d="m 36.6001,69.1799 c 0.9886,0 1.79,-0.8014 1.79,-1.79 0,-0.9886 -0.8014,-1.7898 -1.79,-1.7898 -0.9886,0 -1.79,0.8012 -1.79,1.7898 0,0.9886 0.8014,1.79 1.79,1.79 z"
       inkscape:connector-curvature="0"
       style="fill:#ea7500" />
  </g>
</svg>
