<svg width="187" height="139" viewBox="0 0 187 139" fill="none" xmlns="http://www.w3.org/2000/svg">
<path d="M175.583 33.8132L159.116 29.7068L173.596 80.1008L183.763 70.6545L171.286 63.0628L180.733 50.7022L165.988 46.3144L175.583 33.8132Z" fill="#121416"/>
<path d="M172.04 126.19C156.08 126.95 140.12 127.7 124.15 128.46C125.38 126.26 126.95 122.85 127.65 118.48C129.75 105.45 122.33 95.1402 120.41 92.4802C118.67 90.0702 115.95 86.8602 111.86 83.7702C127.69 65.4902 143.53 47.2202 159.36 28.9402C160.52 30.9202 162.25 34.0702 164.01 38.1002C168.63 48.6802 171.15 60.1002 171.15 60.1002C172.64 66.0402 175.1 76.1002 175.7 89.0902C176.12 97.8902 175.8 110.81 172.04 126.19Z" fill="#FF6170"/>
<path d="M158.97 128.65C148.76 125.79 138.55 122.92 128.35 120.06C128.46 116.47 128.19 111.86 126.77 106.72C123.41 94.5601 115.69 87.0101 111.88 83.7601C122.76 79.2101 133.64 74.6701 144.52 70.1201C148.96 76.6701 155.37 88.0002 158.16 103.41C159.99 113.49 159.7 122.23 158.97 128.65Z" fill="#FFC60C"/>
<path d="M155.325 36.7191L156.02 27.0327C141.606 29.533 131.216 31.2963 124.833 32.3312C110.088 34.7652 99.9797 37.4145 94.5073 40.2791C86.932 44.2364 83.6701 50.1393 84.6967 57.9878C85.6157 65.1325 86.8658 72.0454 88.4388 78.7265C89.217 82.0795 89.9124 84.7122 90.5168 86.6247C91.1543 86.6909 93.1495 86.6247 96.5025 86.4343C100.625 86.1776 104.111 85.8133 106.975 85.3331C111.049 84.6045 115.056 83.7022 119.005 82.6342L123.492 81.5828C127.102 80.5645 130.496 79.2564 133.683 77.642C143.9 72.5339 150.067 65.5051 152.203 56.5472C153.553 50.901 154.588 44.2943 155.325 36.7191Z" fill="#FF6170"/>
<path d="M98.5473 40.577C96.0305 36.0319 89.3494 33.7717 86.3524 36.1975C83.4217 38.5652 84.3903 45.1138 87.6936 48.7235C89.8047 51.0333 94.0353 53.4094 97.0571 51.7122C100.327 49.8577 100.534 44.1535 98.5473 40.577Z" fill="#FF6170"/>
<path d="M93.4972 41.3966C92.3712 39.8816 90.0696 38.7722 88.9189 39.5835C87.7267 40.4197 88.0496 43.1186 89.25 44.7413C90.376 46.2646 92.6775 47.3823 93.8283 46.5793C95.0287 45.7431 94.7142 43.0276 93.4972 41.3966Z" fill="#121416"/>
<path d="M90.7487 56.1249C92.6694 53.5253 90.9474 48.8642 88.2236 46.4633C84.763 43.4167 78.5289 43.0027 76.5006 45.9501C74.6957 48.5745 76.6165 53.2604 79.5141 55.6199C82.8257 58.3189 88.6292 58.9812 90.7487 56.1249Z" fill="#FF6170"/>
<path d="M85.773 52.3746C86.5098 51.3148 85.566 49.3196 84.2662 48.3675C82.8588 47.3326 80.5158 47.1174 79.7541 48.2268C79.0256 49.2865 79.9694 51.2817 81.2775 52.2338C82.6766 53.2439 85.0113 53.4757 85.773 52.3746Z" fill="#121416"/>
<path d="M125.446 6.63317C126.307 6.13644 126.762 5.51549 126.828 4.74555C126.895 3.95077 126.572 3.23882 125.876 2.6179C125.173 1.99698 124.204 1.54162 122.962 1.26014C121.273 0.846189 119.485 1.02005 117.597 1.78172C115.975 2.45231 114.534 3.42092 113.276 4.69588C112.771 5.23401 112.398 5.82182 112.175 6.4593C111.901 7.18785 111.901 7.80877 112.175 8.32206C112.464 8.8602 112.978 9.27414 113.723 9.56391C114.484 9.87023 115.147 9.89506 115.701 9.66325C119.584 8.04058 122.002 7.24579 122.954 7.27891C123.84 7.31202 124.668 7.0968 125.446 6.63317Z" fill="#121416"/>
<path d="M152.154 1.88116C150.581 0.962197 148.917 0.374361 147.17 0.14255C145.133 -0.130656 143.353 0.150837 141.821 0.978733C140.696 1.59965 139.884 2.28684 139.387 3.03195C138.849 3.82673 138.717 4.60491 139.007 5.36657C139.28 6.09512 139.901 6.60014 140.869 6.87335C141.747 7.11344 142.6 7.10519 143.444 6.84854C144.082 6.67468 145.398 6.68293 147.402 6.87335C148.453 6.98098 149.695 7.13827 151.127 7.32868C151.748 7.41147 152.385 7.2128 153.039 6.73262C153.694 6.269 154.074 5.73915 154.182 5.13479C154.29 4.56354 154.132 3.95917 153.702 3.32169C153.304 2.72561 152.783 2.24544 152.154 1.88116Z" fill="#121416"/>
<path d="M123.061 11.9732C114.981 12.4865 108.813 19.6395 109.368 27.6701C109.923 35.7173 117.026 41.9348 125.065 41.3387C133.004 40.7592 139.056 33.7552 138.626 25.8653C138.195 17.8513 131.191 11.4599 123.061 11.9732Z" fill="#6E5790"/>
<path d="M145.108 9.13368C137.028 9.67181 130.835 16.7834 131.39 24.8554C131.945 32.9026 139.023 39.1035 147.087 38.5488C155.151 38.0024 161.327 30.9073 160.78 22.8519C160.242 14.7964 153.172 8.60382 145.108 9.13368Z" fill="#6E5790"/>
<path d="M123.674 34.5752C128.031 34.5752 131.564 31.0872 131.564 26.7847C131.564 22.4821 128.031 18.9941 123.674 18.9941C119.317 18.9941 115.784 22.4821 115.784 26.7847C115.784 31.0872 119.317 34.5752 123.674 34.5752Z" fill="white"/>
<path d="M146.093 31.5202C150.451 31.5202 153.983 28.0323 153.983 23.7297C153.983 19.4272 150.451 15.9392 146.093 15.9392C141.736 15.9392 138.203 19.4272 138.203 23.7297C138.203 28.0323 141.736 31.5202 146.093 31.5202Z" fill="white"/>
<path d="M109.939 84.7537C110.701 85.1759 111.463 85.6065 112.232 86.0287C115.263 85.5734 119.485 84.7454 124.353 83.1062C130.165 81.1524 136.978 78.8591 143.254 72.9893C145.787 70.6216 149.72 66.2751 152.609 59.3208C152.75 58.7578 152.402 58.1865 151.847 58.0541C151.293 57.9216 150.73 58.2775 150.605 58.8405C147.865 65.1988 144.272 69.181 141.921 71.3915C136.266 76.6983 130.239 78.8426 123.691 81.1772C118.102 83.1559 113.284 84.1907 109.939 84.7537Z" fill="white"/>
<path d="M133.824 78.056C126.894 82.1044 120.453 84.199 115.759 85.3249L126.067 89.7127L128.335 81.5994L138.667 84.0085L140.621 75.0838L149.405 75.7958L147.898 67.0366C144.719 70.3151 140.083 74.3967 133.824 78.056Z" fill="white"/>
<path d="M1.77931 122.141C1.32153 127.804 50.2334 138.211 93.2959 138.376C137.711 138.542 187.335 127.862 186.878 122.141C186.003 111.246 2.64402 111.263 1.77931 122.141Z" fill="#CDEDEC"/>
<path d="M29.7477 66.2269L28.9115 64.1489C25.7158 64.4055 22.5119 64.3972 19.2996 64.124C15.7066 63.8177 12.2129 63.1553 8.82677 62.1205C6.47554 61.4499 4.16567 60.6634 1.90552 59.761C4.4306 62.9235 7.26204 65.4238 10.3749 67.2535C13.4795 69.0666 17.2464 70.5568 21.684 71.7159C24.3415 72.4113 27.471 73.3634 31.8009 73.8849C35.2532 74.3072 38.2253 74.3485 40.5186 74.274C39.3182 74.1416 36.5033 73.6613 33.7795 71.5254C31.3455 69.6129 30.2196 67.3363 29.7477 66.2269Z" fill="#ECEBDD"/>
<path d="M46.2807 84.4075V81.8576L43.6562 80.9468L46.2807 80.9221L45.6101 78.5625L45.5604 78.8026V78.4963L5.38261 71.4343V71.6993L7.31162 74.895L5.38261 75.4662V75.5655L5.16735 78.0989L7.38611 79.9866L5.38261 80.6985V80.9138L7.3613 81.1538L5.38261 81.6589V85.1692L7.6759 85.5003L5.38261 86.2124V86.4772L6.21879 87.5038L7.05498 87.8846L5.38261 88.7954L8.60314 89.6812L5.38261 90.8982V91.3784L6.90596 91.6433C5.99528 92.2559 4.88587 93.3239 3.56952 94.8638C2.58432 96.0063 1.59087 97.2896 0.589111 98.7053C3.21354 97.5214 5.75519 96.6024 8.19748 95.9401L8.84321 96.2712L5.38261 97.6041V98.5149L7.95736 99.0612L5.38261 99.5663V106.007L6.86453 106.173L5.38261 106.794V110.089L7.46064 110.875H5.38261V113.5L8.52861 114.096L4.68721 114.907L8.04846 115.503L5.37432 116.695V119.27L7.97393 120.156L5.37432 120.181V122.16L45.5356 129.222L46.0572 129.106L44.3351 126.241L46.2641 125.645V125.57L43.8798 125.239L46.4545 123.021L44.2358 121.158L46.2641 120.446V119.37L44.1861 119.105L46.2641 118.219V115.95C45.6929 115.876 45.1216 115.793 44.5421 115.71C44.4841 115.71 44.4179 115.702 44.3517 115.685L43.9708 115.636L46.2641 114.899V114.659L45.4279 113.632L46.2641 112.341L43.0436 111.455L46.2641 110.238V109.758L42.0915 109.021L46.2641 107.282V106.686L42.8035 104.848L46.2641 103.515V101.297L43.6397 100.792L46.2641 98.6225V95.137L44.7822 94.9466L46.2641 94.3505V91.0555L44.1861 90.269H46.2641V85.6411H43.5652L46.2807 84.4075Z" fill="#F3F1E8"/>
<path d="M83.6807 75.2924V72.8832L81.7021 72.1712L83.6807 69.6876V69.5469L45.1918 78.4964V78.8027L45.2415 78.5626L45.9121 80.9222L43.2877 80.9469L45.9121 81.8577V84.4076L43.2131 85.6246H45.9121V90.2526H43.8341L45.9121 91.039V94.334L44.4302 94.9301L45.9121 95.1205V98.606L43.2877 100.775L45.9121 101.28V103.499L42.4515 104.832L45.9121 106.67V107.266L41.7395 109.004L45.9121 109.741V110.221L42.6916 111.438L45.9121 112.324L45.0759 113.616L45.9121 114.642V114.882L43.6188 115.619L43.9996 115.669C44.0659 115.685 44.1321 115.694 44.1901 115.694C44.7613 115.777 45.3326 115.859 45.9121 115.934V118.202L43.8341 119.088L45.9121 119.353V120.429L43.8837 121.141L46.1025 123.004L43.5277 125.223L45.9121 125.554V125.629L43.9831 126.225L45.7051 129.089L83.689 119.949V117.73C83.5565 117.722 83.4241 117.714 83.2833 117.706C82.1243 117.639 81.3874 117.457 81.0894 117.159C81.3626 117.159 82.2319 116.919 83.689 116.447V113.202C83.5648 113.185 83.4241 113.16 83.2833 113.127C82.3478 112.937 81.6772 112.821 81.2798 112.771V112.581C81.2964 112.581 81.611 112.473 82.2319 112.25C82.8694 112.026 83.2585 111.919 83.3992 111.919C82.2899 111.587 81.6441 111.331 81.4702 111.157C81.5282 111.157 82.265 110.991 83.689 110.652V108.334C83.5648 108.317 83.4323 108.292 83.2833 108.259C82.5962 108.152 82.1574 107.986 81.9504 107.779C82.0167 107.779 82.2484 107.721 82.6458 107.614C83.0184 107.514 83.3661 107.415 83.6973 107.307V105.684L80.336 105.395L83.6973 104.749V103.052L82.4058 102.745L83.6973 102.555V98.6143L81.5944 98.2334L81.3046 97.803L83.689 96.8922V94.0526L82.2071 94.0774L83.689 93.7711V90.0456L81.8511 89.8055L83.689 89.259V85.6328L81.3046 84.896L83.689 84.2503V84.0351L81.0397 83.4141L83.689 82.7435V80.3591L81.9504 79.9535L83.689 79.5727V77.5195L80.4436 77.1635H80.4188L83.6807 75.2924Z" fill="#D9D8C7"/>
<path d="M84.0576 69.5971L43.8798 62.5352L5.39087 71.4848L45.5686 78.5467L84.0576 69.5971Z" fill="#FAF9F3"/>
<path d="M71.6288 61.9652C73.1438 60.4667 74.4519 58.7944 75.5696 56.9316C65.8501 59.8458 55.5345 60.5578 44.6228 59.0759C43.6045 60.5909 41.8245 62.0563 39.2746 63.4885C36.7329 64.9042 33.5538 65.7653 29.7538 66.0634L28.9176 63.9853C25.7219 64.242 22.518 64.2337 19.3057 63.9605C15.7127 63.6541 12.2189 62.9918 8.83282 61.9569C6.4816 61.2863 4.17178 60.4998 1.91162 59.5974C4.4367 62.76 7.26814 65.2603 10.381 67.0899C13.4856 68.903 17.2525 70.3932 21.6901 71.5522C26.1276 72.7113 29.4971 73.4399 31.8069 73.7214C34.8122 74.0857 37.8754 74.2015 40.9966 74.0525C41.2036 74.0525 41.4106 74.0443 41.6175 74.0277L41.9239 74.0029C45.4424 73.9532 48.7292 73.473 51.7758 72.5457C54.8308 71.6433 58.2168 70.3187 61.9424 68.5884C65.6845 66.8664 68.9133 64.6559 71.6288 61.9652Z" fill="#F3F1E8"/>
<path d="M5.38263 88.7708L8.60316 89.6566L46.2807 92.6867L7.055 87.8684L5.38263 88.7708ZM43.8964 125.206L45.1879 124.089L8.05672 115.479L5.38263 116.671V119.246L7.98224 120.131L44.3434 126.217L46.2724 125.62V125.546L43.8964 125.206ZM44.567 115.686C44.509 115.686 44.4428 115.677 44.3765 115.661L7.46066 110.843H5.38263V113.467L8.52863 114.063L44.2027 119.072L46.2807 118.186V115.918C45.7095 115.851 45.1382 115.768 44.567 115.686ZM46.2807 110.222V109.741L42.1081 109.005L45.2789 107.672L5.38263 102.497V105.983L6.86455 106.148L5.38263 106.769V108.417L43.0602 111.447L46.2807 110.222ZM46.2807 85.6247H43.5818L6.52513 85.3184L7.66763 85.4841L46.2724 90.2527V85.6247H46.2807ZM46.2807 83.1162V81.8496L43.6563 80.9389L7.31993 74.8787L5.39092 75.45V75.5493L5.17566 78.0826L6.2933 79.0347L46.2807 83.1162Z" fill="#FAF9F3"/>
<path d="M3.56952 94.8309C2.58432 95.9734 1.59087 97.2566 0.589111 98.6723C3.21354 97.4884 5.75519 96.5695 8.19748 95.9072C11.1282 95.1621 14.0672 94.6322 17.0228 94.3342C19.8046 94.0444 22.5946 93.9036 25.4011 93.9036C28.2243 93.9202 31.4779 93.9947 35.1869 94.1438L9.56348 92.0657L6.9142 91.6104C6.00351 92.223 4.88587 93.291 3.56952 94.8309Z" fill="#D9D8C7"/>
<path d="M46.0655 129.073L44.3434 126.208L7.98227 120.123L5.38266 120.148V122.127L45.5439 129.189L46.0655 129.073ZM46.2807 120.413V119.337L44.2027 119.072L8.52866 114.063L4.68726 114.874L8.04851 115.47L45.1796 124.081L46.4711 122.979L44.2524 121.117L46.2807 120.413ZM44.3765 115.661L43.9957 115.611L46.289 114.874V114.634L45.4529 113.608L46.289 112.316L43.0685 111.43L5.39095 108.4V110.048L7.46897 110.834L44.3765 115.661ZM46.2807 107.266V106.67L42.8201 104.832L46.2807 103.499V101.28L43.6563 100.775L8.84326 96.2384L5.38266 97.5713V98.482L7.95741 99.0284L5.38266 99.5334V102.489L45.279 107.663L46.2807 107.266ZM46.2807 94.3342V92.6867L8.60319 89.6566L5.38266 90.8737V91.3538L6.90601 91.6187L9.55524 92.0741L35.1786 94.1521L44.7905 94.9386L46.2807 94.3342ZM46.2807 92.6867V91.0392L44.2027 90.2527H46.2807L7.67595 85.484L5.38266 86.196V86.4609L6.21884 87.4875L7.05503 87.8684L46.2807 92.6867ZM46.2807 84.4077V83.1162L6.29333 79.0347L7.39444 79.9619L5.39095 80.6739V80.8892L7.36963 81.1293L5.39095 81.6343V85.1446L6.53345 85.3101L43.5901 85.6164L46.2807 84.4077ZM46.2807 80.9223L45.6102 78.5627L45.5605 78.8029V78.4965L5.38266 71.4346V71.6996L7.31167 74.8952L43.648 80.9554L46.2807 80.9223Z" fill="#ECEBDD"/>
<path d="M46.2807 98.6061V95.1205L44.7988 94.9301L35.1869 94.1437C31.4862 93.9947 28.2243 93.9201 25.4012 93.9036C22.6029 93.9036 19.8129 94.0443 17.0229 94.3341C14.0673 94.6321 11.12 95.162 8.19751 95.9071L8.84324 96.2383L43.6563 100.775L46.2807 98.6061Z" fill="#F3F1E8"/>
<path d="M45.906 125.465L43.977 126.061L45.7156 128.925L83.6747 119.785V117.567L45.906 125.465ZM45.906 119.189V120.266L81.2655 112.417C81.2821 112.417 81.5966 112.31 82.2175 112.086C82.855 111.862 83.2442 111.755 83.3849 111.755C82.2755 111.424 81.6298 111.167 81.4559 110.993L45.906 119.189ZM83.6829 93.8889L82.4659 93.9136L45.906 103.343L42.4454 104.676L45.906 106.514V107.11L44.9043 107.541L73.417 104.13L73.7233 104.08L83.6747 102.888L82.3831 102.598L83.6747 102.383V98.4671L81.5718 98.0863L81.282 97.6309L83.6664 96.7202V93.8889H83.6829ZM83.6829 84.0865C83.6912 84.0037 83.6995 83.9293 83.7077 83.8465C82.8136 83.6561 81.9195 83.4656 81.0337 83.2752L45.9143 90.8836V94.1786L44.4324 94.7747L45.9143 94.9651L81.845 89.6418L83.6829 89.0953V85.4691C82.8882 85.229 82.0934 84.989 81.2986 84.7572C82.0934 84.5336 82.8882 84.31 83.6829 84.0865ZM83.6829 79.4337V77.3806L80.4376 77.0246L45.9143 82.9689V84.2604L43.2154 85.4774H45.906L81.9361 79.8229L83.6829 79.4337ZM81.7208 72.0158L83.6747 69.5321V69.3914L45.1858 78.341V78.6721L45.2354 78.4072L45.906 80.7666L43.2816 80.7915L45.906 81.7022L81.7208 72.0158Z" fill="#DBDAC1"/>
<path d="M45.906 120.257L43.8777 120.969L46.0964 122.832L43.5217 125.051L45.906 125.382V125.457L83.6747 117.558C83.5505 117.558 83.4097 117.55 83.269 117.534C82.1099 117.467 81.3731 117.285 81.0751 116.987C81.3483 116.987 82.2093 116.755 83.6747 116.292V113.046C83.5505 113.013 83.4097 112.98 83.269 112.947C82.3335 112.757 81.6629 112.641 81.2655 112.591V112.401L45.906 120.257ZM73.7316 104.08C71.8523 104.668 70.0475 105.438 68.3172 106.398C65.2291 108.054 62.4722 110.091 60.0382 112.508L58.7964 111.457C61.3877 109.354 63.9707 107.781 66.5538 106.73C69.4349 105.554 71.7198 104.685 73.4253 104.13L44.9126 107.541L41.7417 108.857L45.9143 109.594V110.074L42.6938 111.291L45.9143 112.177L45.0781 113.469L45.9143 114.495V114.735L43.621 115.472L44.0267 115.547C44.0764 115.547 44.1261 115.555 44.1923 115.571C44.7635 115.638 45.3348 115.704 45.9143 115.787V118.055L43.8363 118.941L45.9143 119.206L81.4642 111.001C81.5139 111.001 82.2507 110.844 83.6829 110.521V108.187C83.5588 108.17 83.418 108.145 83.2773 108.112C82.5901 108.004 82.1514 107.839 81.9444 107.632C82.0106 107.632 82.2424 107.574 82.6398 107.466C83.0041 107.367 83.3518 107.268 83.6912 107.16V105.562L80.33 105.256L83.6912 104.635V102.913L73.7316 104.08ZM82.4659 93.9137L82.201 93.9385L83.6829 93.6074V89.9067L81.845 89.6418L45.9143 94.9651V98.4506L43.2899 100.62L45.9143 101.125V103.343L82.4659 93.9137ZM83.6829 82.5798C83.6829 81.7933 83.6829 81.0068 83.6829 80.2203L81.9444 79.8147L45.906 85.4692V90.0971H43.828C44.5234 90.362 45.2106 90.6187 45.906 90.8837C58.4983 88.1185 71.0906 85.3533 83.6829 82.5798ZM83.6829 72.7278L81.7291 72.0159L45.9143 81.7022V82.9689L80.4376 77.0247L83.6829 75.1371V72.7278Z" fill="#E7E6D6"/>
<path d="M68.3172 106.398C70.0475 105.446 71.8606 104.676 73.7316 104.08L73.4253 104.13C71.7198 104.685 69.4348 105.554 66.5538 106.73C63.979 107.781 61.396 109.354 58.7964 111.457L60.0382 112.508C62.4722 110.083 65.2291 108.054 68.3172 106.398Z" fill="#D0CFB5"/>
<path d="M67.241 106.829C70.1469 105.529 72.2084 104.627 73.4171 104.13L52.9432 106.564C55.5842 108.832 57.3145 110.861 58.1176 112.649C61.305 110.066 64.3434 108.129 67.241 106.829Z" fill="#F3F2EA"/>
<path d="M96.3401 112.36C100.86 112.71 107.16 112.69 114.4 110.99C119.35 109.83 123.48 108.17 126.7 106.61C126.27 104.75 125.6 102.49 124.5 100.05C123.24 97.2702 121.8 95.0501 120.54 93.3801C117.18 95.5601 113.29 97.8401 108.85 100.01C104.58 102.1 100.55 103.72 96.8901 105.01C95.3601 104.92 92.9001 105.23 90.0201 106.16C86.4701 107.31 82.7001 109.62 81.8101 114.24C81.8101 114.24 84.05 114.38 85.6 113.28C85.6 113.28 84.73 115.43 85.05 117.62C85.05 117.62 88.0701 116.89 89.2601 114.79C89.2601 114.79 89.2101 116.12 90.4901 118.95C90.4901 118.95 93.4601 116.76 94.0601 113.24C94.0501 113.23 93.9601 111.54 96.3401 112.36Z" fill="#6F578D"/>
<path d="M120.96 34.9801C123.429 34.9801 125.43 32.9475 125.43 30.4401C125.43 27.9328 123.429 25.9001 120.96 25.9001C118.491 25.9001 116.49 27.9328 116.49 30.4401C116.49 32.9475 118.491 34.9801 120.96 34.9801Z" fill="#121416"/>
<path d="M141.94 31.08C144.409 31.08 146.41 29.0474 146.41 26.54C146.41 24.0326 144.409 22 141.94 22C139.471 22 137.47 24.0326 137.47 26.54C137.47 29.0474 139.471 31.08 141.94 31.08Z" fill="#121416"/>
<path d="M107.7 131.77L107.61 130.66C107.61 130.57 107.61 130.49 107.61 130.4L107.06 122.17H124.97C126.76 122.17 127.23 124.86 125.57 125.58L106.51 133.9C107.27 133.47 107.78 132.66 107.7 131.77Z" fill="#50BDD6"/>
<path d="M64.71 92.28L103.6 95.27C105.09 95.4 106.29 96.59 106.41 98.08L108.07 123.03H124.87C125.55 123.03 125.72 124.05 125.08 124.31L106.96 132.24C92.48 129.37 77.99 126.5 63.51 123.63C63.92 113.17 64.31 102.73 64.71 92.28Z" fill="#3CA2BA"/>
<path d="M106.33 133.9L106.5 133.81C106.46 133.86 106.42 133.86 106.33 133.9Z" fill="#C3C8CB"/>
<path d="M63.77 92.1901L102.66 95.1801C104.15 95.3101 105.35 96.5001 105.47 97.9901C106.23 109.55 106.99 121.11 107.75 132.68C107.46 133.08 107.17 133.47 106.88 133.87C106.34 133.91 105.8 133.95 105.26 133.99C91.93 131.87 78.59 129.75 65.26 127.64C63.85 127.43 62.79 126.28 62.7 124.87C61.96 115.08 61.22 105.28 60.48 95.4901C60.36 93.5601 61.9 92.0201 63.77 92.1901Z" fill="#72D4EA"/>
<path fill-rule="evenodd" clip-rule="evenodd" d="M83.1799 106.86L80.5399 110.89L76.2399 108.9C76.1699 112.69 78.3499 116.82 82.9999 116.9C87.8699 116.99 89.9799 112.94 90.0499 109.15L85.4599 110.98L83.1799 106.86Z" fill="#50BDD6"/>
<path d="M129.46 119.29C129.46 119.29 155.65 128.09 171.14 104.69C171.14 104.69 177.91 94.6302 169.96 89.4902C169.96 89.4902 163.82 85.3002 158.33 95.0302C152.84 104.76 139.37 111.63 130.23 111.22C130.23 111.22 115.63 110.95 113.49 121.05C113.49 121.05 115.95 121.25 117.66 120.09C117.66 120.09 116.63 122.47 116.98 124.86C116.98 124.86 120.32 124.12 121.67 121.85C121.67 121.85 121.58 123.33 122.94 126.44C122.94 126.44 126.25 124.08 126.97 120.28C126.9 120.17 126.89 118.34 129.46 119.29Z" fill="#6F578D"/>
</svg>
